<?xml version="1.0" standalone="no"?><!DOCTYPE svg PUBLIC "-//W3C//DTD SVG 1.1//EN" "http://www.w3.org/Graphics/SVG/1.1/DTD/svg11.dtd"><svg xmlns="http://www.w3.org/2000/svg" width="600" height="400" viewBox="0 0 600 400"><g class="sankey" transform="translate(100,10)"><g class="groups"/><g class="links"><g class="link" style="opacity: 0.8;"><path d="M1,192.71428571428578 A271.1255564336967 271.1255564336967 0.13351353149267364 0 0 37.09148013531675,190.30134977527985 L162.2588711531299,173.48979697886736 A279.76192007006034 279.76192007006034 0.13351353149267364 0 1 199.5,170.99999999999997 L199.5,179.6363636363636 A271.1255564336967 271.1255564336967 0.13351353149267364 0 0 163.40851986468326,182.04929957536953 L38.24112884687012,198.86085237178202 A279.76192007006034 279.76192007006034 0.13351353149267364 0 1 1,201.3506493506494 Z" style="fill: rgb(31, 119, 180);"/><title>name - Sabine → cluster - 0
cluster 1
1.00</title><text class="label" dy="0.35em" x="5" y="197.0324675324676"/></g><g class="link" style="opacity: 0.8;"><path d="M1,150.51948051948057 A995.6818181818181 995.6818181818181 0.03273808461097594 0 0 33.59089315810099,149.9859511574786 L166.62641934132657,145.6290661899017 A1004.3181818181819 1004.3181818181819 0.03273808461097594 0 1 199.5,145.0909090909091 L199.5,153.72727272727272 A995.6818181818181 995.6818181818181 0.03273808461097594 0 0 166.909106841899,154.26080208927468 L33.873580658673426,158.6176870568516 A1004.3181818181819 1004.3181818181819 0.03273808461097594 0 1 1,159.1558441558442 Z" style="fill: rgb(31, 119, 180);"/><title>name - Jenny → cluster - 0
cluster 1
1.00</title><text class="label" dy="0.35em" x="5" y="154.83766233766238"/></g><g class="link" style="opacity: 0.8;"><path d="M1,108.32467532467535 A550.3199440362282 550.3199440362282 0.06694682854606415 0 1 37.81466075070967,109.55744817781398 L163.2630846151235,117.96839166485385 A541.6835803998645 541.6835803998645 0.06694682854606415 0 0 199.5,119.18181818181819 L199.5,127.81818181818181 A550.3199440362282 550.3199440362282 0.06694682854606415 0 1 162.68533924929034,126.58540896504319 L37.23691538487652,118.17446547800331 A541.6835803998645 541.6835803998645 0.06694682854606415 0 0 1,116.96103896103898 Z" style="fill: rgb(31, 119, 180);"/><title>name - Britta → cluster - 0
cluster 1
1.00</title><text class="label" dy="0.35em" x="5" y="112.64285714285717"/></g><g class="link" style="opacity: 0.8;"><path d="M1,52.06493506493507 A995.6818181818181 995.6818181818181 0.03273808461097416 0 0 33.59089315809922,51.53140570293324 L166.62641934132836,47.174520735356126 A1004.3181818181819 1004.3181818181819 0.03273808461097416 0 1 199.5,46.63636363636364 L199.5,55.27272727272728 A995.6818181818181 995.6818181818181 0.03273808461097416 0 0 166.90910684190078,55.80625663472911 L33.87358065867164,60.163141602306226 A1004.3181818181819 1004.3181818181819 0.03273808461097416 0 1 1,60.70129870129871 Z" style="fill: rgb(174, 199, 232);"/><title>name - Lisa → cluster - 1
cluster 2
1.00</title><text class="label" dy="0.35em" x="5" y="56.38311688311689"/></g><g class="link" style="opacity: 0.8;"><path d="M1,136.4545454545455 A0 0 0 0 0 1,136.4545454545455 L199.5,136.45454545454547 A0 0 0 0 1 199.5,136.45454545454547 L199.5,145.0909090909091 A0 0 0 0 0 199.5,145.0909090909091 L1,145.09090909090912 A0 0 0 0 1 1,145.09090909090912 Z" style="fill: rgb(31, 119, 180);"/><title>name - Jaqueline → cluster - 0
cluster 1
1.00</title><text class="label" dy="0.35em" x="5" y="140.7727272727273"/></g><g class="link" style="opacity: 0.8;"><path d="M1,220.84415584415592 A1004.3181818181819 1004.3181818181819 0.03273808461097416 0 1 33.87358065867164,221.3823129431484 L166.90910684190078,225.73919791072544 A995.6818181818181 995.6818181818181 0.03273808461097416 0 0 199.5,226.27272727272728 L199.5,234.9090909090909 A1004.3181818181819 1004.3181818181819 0.03273808461097416 0 1 166.62641934132836,234.37093381009842 L33.59089315809922,230.0140488425214 A995.6818181818181 995.6818181818181 0.03273808461097416 0 0 1,229.48051948051955 Z" style="fill: rgb(255, 127, 14);"/><title>name - Cristina → cluster - 3
cluster 4
1.00</title><text class="label" dy="0.35em" x="5" y="225.16233766233773"/></g><g class="link" style="opacity: 0.8;"><path d="M1,305.23376623376635 A550.3199440362339 550.3199440362339 0.06694682854606149 0 1 37.81466075070859,306.4665390869049 L163.26308461512457,314.8774825739448 A541.6835803998702 541.6835803998702 0.06694682854606149 0 0 199.5,316.09090909090907 L199.5,324.7272727272727 A550.3199440362339 550.3199440362339 0.06694682854606149 0 1 162.68533924929142,323.49449987413414 L37.23691538487545,315.08355638709423 A541.6835803998702 541.6835803998702 0.06694682854606149 0 0 1,313.87012987013 Z" style="fill: rgb(255, 187, 120);"/><title>name - Stephan → cluster - 2
cluster 3
1.00</title><text class="label" dy="0.35em" x="5" y="309.55194805194816"/></g><g class="link" style="opacity: 0.8;"><path d="M1,291.1688311688313 A369.67649948735743 369.67649948735743 0.10030109149817279 0 1 38.016816705745924,293.0268026370045 L163.3479682891747,305.63997982160214 A361.0401358509938 361.0401358509938 0.10030109149817279 0 0 199.5,307.45454545454544 L199.5,316.09090909090907 A369.67649948735743 369.67649948735743 0.10030109149817279 0 1 162.48318329425408,314.23293762273585 L37.15203171082531,301.6197604381382 A361.0401358509938 361.0401358509938 0.10030109149817279 0 0 1,299.8051948051949 Z" style="fill: rgb(255, 187, 120);"/><title>name - Petra → cluster - 2
cluster 3
1.00</title><text class="label" dy="0.35em" x="5" y="295.4870129870131"/></g><g class="link" style="opacity: 0.8;"><path d="M1,80.19480519480521 A361.04013585099096 361.04013585099096 0.10030109149817434 0 0 37.15203171082559,78.38023956186188 L162.4831832942538,65.7670623772642 A369.6764994873546 369.6764994873546 0.10030109149817434 0 1 199.5,63.909090909090914 L199.5,72.54545454545455 A361.04013585099096 361.04013585099096 0.10030109149817434 0 0 163.34796828917442,74.36002017839787 L38.016816705746216,86.97319736299556 A369.6764994873546 369.6764994873546 0.10030109149817434 0 1 1,88.83116883116884 Z" style="fill: rgb(174, 199, 232);"/><title>name - Matic → cluster - 1
cluster 2
1.00</title><text class="label" dy="0.35em" x="5" y="84.51298701298703"/></g><g class="link" style="opacity: 0.8;"><path d="M1,248.97402597402606 A995.6818181818181 995.6818181818181 0.03273808461097594 0 0 33.59089315810099,248.4404966120241 L166.62641934132657,244.08361164444713 A1004.3181818181819 1004.3181818181819 0.03273808461097594 0 1 199.5,243.54545454545453 L199.5,252.18181818181816 A995.6818181818181 995.6818181818181 0.03273808461097594 0 0 166.909106841899,252.71534754382012 L33.873580658673426,257.0722325113971 A1004.3181818181819 1004.3181818181819 0.03273808461097594 0 1 1,257.6103896103897 Z" style="fill: rgb(255, 127, 14);"/><title>name - Natalija → cluster - 3
cluster 4
1.00</title><text class="label" dy="0.35em" x="5" y="253.29220779220788"/></g><g class="link" style="opacity: 0.8;"><path d="M1,263.03896103896113 A541.6835803998587 541.6835803998587 0.06694682854606127 0 0 37.236915384874564,261.82553452199693 L162.6853392492923,253.4145910349567 A550.3199440362224 550.3199440362224 0.06694682854606127 0 1 199.5,252.1818181818182 L199.5,260.8181818181818 A541.6835803998587 541.6835803998587 0.06694682854606127 0 0 163.26308461512545,262.031608335146 L37.8146607507077,270.44255182218626 A550.3199440362224 550.3199440362224 0.06694682854606127 0 1 1,271.67532467532476 Z" style="fill: rgb(255, 127, 14);"/><title>name - Primož → cluster - 3
cluster 4
1.00</title><text class="label" dy="0.35em" x="5" y="267.35714285714295"/></g><g class="link" style="opacity: 0.8;"><path d="M1,234.909090909091 A0 0 0 0 0 1,234.909090909091 L199.5,234.9090909090909 A0 0 0 0 1 199.5,234.9090909090909 L199.5,243.54545454545453 A0 0 0 0 0 199.5,243.54545454545453 L1,243.54545454545462 A0 0 0 0 1 1,243.54545454545462 Z" style="fill: rgb(255, 127, 14);"/><title>name - Nastja → cluster - 3
cluster 4
1.00</title><text class="label" dy="0.35em" x="5" y="239.2272727272728"/></g><g class="link" style="opacity: 0.8;"><path d="M1,122.38961038961043 A1004.3181818181819 1004.3181818181819 0.03273808461097416 0 1 33.87358065867164,122.92776748860291 L166.90910684190078,127.28465245618 A995.6818181818181 995.6818181818181 0.03273808461097416 0 0 199.5,127.81818181818184 L199.5,136.45454545454547 A1004.3181818181819 1004.3181818181819 0.03273808461097416 0 1 166.62641934132836,135.91638835555298 L33.59089315809922,131.5595033879759 A995.6818181818181 995.6818181818181 0.03273808461097416 0 0 1,131.02597402597405 Z" style="fill: rgb(31, 119, 180);"/><title>name - Börni → cluster - 0
cluster 1
1.00</title><text class="label" dy="0.35em" x="5" y="126.70779220779224"/></g><g class="link" style="opacity: 0.8;"><path d="M1,206.77922077922085 A217.5025230690354 217.5025230690354 0.1665387782526837 0 0 37.055396521101336,203.76995150410417 L162.01295334897958,182.76512184141507 A226.13888670539902 226.13888670539902 0.1665387782526837 0 1 199.5,179.6363636363636 L199.5,188.27272727272722 A217.5025230690354 217.5025230690354 0.1665387782526837 0 0 163.44460347889867,191.2819965478439 L38.487046651020414,212.286826210533 A226.13888670539902 226.13888670539902 0.1665387782526837 0 1 1,215.41558441558448 Z" style="fill: rgb(31, 119, 180);"/><title>name - Tereza → cluster - 0
cluster 1
1.00</title><text class="label" dy="0.35em" x="5" y="211.09740259740266"/></g><g class="link" style="opacity: 0.8;"><path d="M1,164.58441558441564 A541.6835803998601 541.6835803998601 0.06694682854606282 0 0 37.23691538487551,163.37098906745138 L162.68533924929136,154.96004558041128 A550.3199440362239 550.3199440362239 0.06694682854606282 0 1 199.5,153.72727272727272 L199.5,162.36363636363635 A541.6835803998601 541.6835803998601 0.06694682854606282 0 0 163.2630846151245,163.5770628806006 L37.81466075070865,171.9880063676407 A550.3199440362239 550.3199440362239 0.06694682854606282 0 1 1,173.22077922077926 Z" style="fill: rgb(31, 119, 180);"/><title>name - Nico → cluster - 0
cluster 1
1.00</title><text class="label" dy="0.35em" x="5" y="168.90259740259745"/></g><g class="link" style="opacity: 0.8;"><path d="M1,333.3636363636365 A0 0 0 0 0 1,333.3636363636365 L199.5,333.3636363636363 A0 0 0 0 1 199.5,333.3636363636363 L199.5,341.99999999999994 A0 0 0 0 0 199.5,341.99999999999994 L1,342.0000000000001 A0 0 0 0 1 1,342.0000000000001 Z" style="fill: rgb(255, 187, 120);"/><title>name - Volker → cluster - 2
cluster 3
1.00</title><text class="label" dy="0.35em" x="5" y="337.6818181818183"/></g><g class="link" style="opacity: 0.8;"><path d="M1,319.2987012987014 A1004.3181818181819 1004.3181818181819 0.03273808461097416 0 1 33.87358065867164,319.8368583976939 L166.90910684190078,324.19374336527085 A995.6818181818181 995.6818181818181 0.03273808461097416 0 0 199.5,324.7272727272727 L199.5,333.3636363636363 A1004.3181818181819 1004.3181818181819 0.03273808461097416 0 1 166.62641934132836,332.82547926464383 L33.59089315809922,328.4685942970669 A995.6818181818181 995.6818181818181 0.03273808461097416 0 0 1,327.93506493506504 Z" style="fill: rgb(255, 187, 120);"/><title>name - Theresa → cluster - 2
cluster 3
1.00</title><text class="label" dy="0.35em" x="5" y="323.61688311688323"/></g><g class="link" style="opacity: 0.8;"><path d="M1,277.1038961038962 A279.7619200700628 279.7619200700628 0.1335135314926723 0 1 38.241128846870076,279.5936930827636 L163.40851986468329,296.4052458791759 A271.12555643369916 271.12555643369916 0.1335135314926723 0 0 199.5,298.8181818181818 L199.5,307.45454545454544 A279.7619200700628 279.7619200700628 0.1335135314926723 0 1 162.25887115312992,304.96474847567805 L37.09148013531672,288.15319567926576 A271.12555643369916 271.12555643369916 0.1335135314926723 0 0 1,285.74025974025983 Z" style="fill: rgb(255, 187, 120);"/><title>name - Maria → cluster - 2
cluster 3
1.00</title><text class="label" dy="0.35em" x="5" y="281.422077922078"/></g><g class="link" style="opacity: 0.8;"><path d="M1,94.25974025974028 A271.1255564336978 271.1255564336978 0.13351353149267386 0 0 37.09148013531695,91.8468043207343 L162.2588711531297,75.03525152432198 A279.7619200700614 279.7619200700614 0.13351353149267386 0 1 199.5,72.54545454545456 L199.5,81.18181818181819 A271.1255564336978 271.1255564336978 0.13351353149267386 0 0 163.40851986468306,83.59475412082418 L38.24112884687032,100.40630691723649 A279.7619200700614 279.7619200700614 0.13351353149267386 0 1 1,102.89610389610391 Z" style="fill: rgb(174, 199, 232);"/><title>name - Sofia → cluster - 1
cluster 2
1.00</title><text class="label" dy="0.35em" x="5" y="98.5779220779221"/></g><g class="link" style="opacity: 0.8;"><path d="M1,38 A0 0 0 0 0 1,38 L199.5,38 A0 0 0 0 0 199.5,38 L199.5,46.63636363636364 A0 0 0 0 0 199.5,46.63636363636364 L1,46.63636363636364 A0 0 0 0 0 1,46.63636363636364 Z" style="fill: rgb(174, 199, 232);"/><title>name - Emma → cluster - 1
cluster 2
1.00</title><text class="label" dy="0.35em" x="5" y="42.31818181818182"/></g><g class="link" style="opacity: 0.8;"><path d="M1,66.12987012987014 A541.6835803998633 541.6835803998633 0.0669468285460626 0 0 37.2369153848756,64.91644361290585 L162.68533924929125,56.50550012586585 A550.3199440362271 550.3199440362271 0.0669468285460626 0 1 199.5,55.27272727272728 L199.5,63.90909090909092 A541.6835803998633 541.6835803998633 0.0669468285460626 0 0 163.2630846151244,65.1225174260552 L37.81466075070874,73.53346091309521 A550.3199440362271 550.3199440362271 0.0669468285460626 0 1 1,74.76623376623377 Z" style="fill: rgb(174, 199, 232);"/><title>name - Lorenzo → cluster - 1
cluster 2
1.00</title><text class="label" dy="0.35em" x="5" y="70.44805194805195"/></g><g class="link" style="opacity: 0.8;"><path d="M1,178.6493506493507 A361.0401358509895 361.0401358509895 0.1003010914981739 0 0 37.15203171082529,176.83478501640738 L162.48318329425408,164.2216078318096 A369.6764994873531 369.6764994873531 0.1003010914981739 0 1 199.5,162.36363636363635 L199.5,170.99999999999997 A361.0401358509895 361.0401358509895 0.1003010914981739 0 0 163.3479682891747,172.8145656329433 L38.0168167057459,185.4277428175411 A369.6764994873531 369.6764994873531 0.1003010914981739 0 1 1,187.28571428571433 Z" style="fill: rgb(31, 119, 180);"/><title>name - Rocco → cluster - 0
cluster 1
1.00</title><text class="label" dy="0.35em" x="5" y="182.96753246753252"/></g><g class="link" style="opacity: 0.8;"><path d="M200.5,38 A0 0 0 0 0 200.5,38 L399,38 A0 0 0 0 0 399,38 L399,55.27272727272728 A0 0 0 0 0 399,55.27272727272728 L200.5,55.27272727272728 A0 0 0 0 0 200.5,55.27272727272728 Z" style="fill: rgb(174, 199, 232);"/><title>cluster - 1 → Persona - tourist
cluster 2
2.00</title><text class="label" dy="0.35em" x="204.5" y="46.63636363636364"/></g><g class="link" style="opacity: 0.8;"><path d="M200.5,226.27272727272728 A93.43038762446653 93.43038762446653 0.38215230325826344 0 0 235.34190848394792,219.53304702139428 L357.7167741009571,170.3492994461074 A110.70311489719381 110.70311489719381 0.38215230325826344 0 1 399,162.36363636363635 L399,179.6363636363636 A93.43038762446653 93.43038762446653 0.38215230325826344 0 0 364.1580915160521,186.3760438876966 L241.78322589904292,235.55979146298347 A110.70311489719381 110.70311489719381 0.38215230325826344 0 1 200.5,243.54545454545453 Z" style="fill: rgb(255, 127, 14);"/><title>cluster - 3 → Persona - art lover
cluster 4
2.00</title><text class="label" dy="0.35em" x="204.5" y="234.9090909090909"/></g><g class="link" style="opacity: 0.8;"><path d="M200.5,243.54545454545456 A0 0 0 0 0 200.5,243.54545454545456 L399,243.54545454545453 A0 0 0 0 1 399,243.54545454545453 L399,260.8181818181818 A0 0 0 0 0 399,260.8181818181818 L200.5,260.8181818181818 A0 0 0 0 1 200.5,260.8181818181818 Z" style="fill: rgb(255, 127, 14);"/><title>cluster - 3 → Persona - casual goer
cluster 4
2.00</title><text class="label" dy="0.35em" x="204.5" y="252.1818181818182"/></g><g class="link" style="opacity: 0.8;"><path d="M200.5,119.18181818181819 A93.43038762446655 93.43038762446655 0.3821523032582639 0 0 235.34190848394795,112.44213793048517 L357.716774100957,63.25839035519837 A110.70311489719383 110.70311489719383 0.3821523032582639 0 1 399,55.272727272727266 L399,72.54545454545455 A93.43038762446655 93.43038762446655 0.3821523032582639 0 0 364.158091516052,79.28513479678756 L241.78322589904295,128.46888237207438 A110.70311489719383 110.70311489719383 0.3821523032582639 0 1 200.5,136.45454545454547 Z" style="fill: rgb(31, 119, 180);"/><title>cluster - 0 → Persona - tourist
cluster 1
2.00</title><text class="label" dy="0.35em" x="204.5" y="127.81818181818183"/></g><g class="link" style="opacity: 0.8;"><path d="M200.5,324.72727272727275 A0 0 0 0 0 200.5,324.72727272727275 L399,324.72727272727275 A0 0 0 0 0 399,324.72727272727275 L399,342 A0 0 0 0 0 399,342 L200.5,342 A0 0 0 0 0 200.5,342 Z" style="fill: rgb(255, 187, 120);"/><title>cluster - 2 → Persona - parent
cluster 3
2.00</title><text class="label" dy="0.35em" x="204.5" y="333.3636363636364"/></g><g class="link" style="opacity: 0.8;"><path d="M200.5,136.45454545454547 A0 0 0 0 0 200.5,136.45454545454547 L399,136.45454545454544 A0 0 0 0 1 399,136.45454545454544 L399,162.36363636363637 A0 0 0 0 0 399,162.36363636363637 L200.5,162.3636363636364 A0 0 0 0 1 200.5,162.3636363636364 Z" style="fill: rgb(31, 119, 180);"/><title>cluster - 0 → Persona - art lover
cluster 1
3.00</title><text class="label" dy="0.35em" x="204.5" y="149.40909090909093"/></g><g class="link" style="opacity: 0.8;"><path d="M200.5,162.36363636363637 A128.17590273624407 128.17590273624407 0.33307598967348895 0 1 242.4073045972969,169.4080408690715 L365.56371172782787,212.0158938396803 A102.26681182715315 102.26681182715315 0.33307598967348895 0 0 399,217.63636363636363 L399,243.54545454545456 A128.17590273624407 128.17590273624407 0.33307598967348895 0 1 357.0926954027031,236.50105004001944 L233.93628827217213,193.89319706941063 A102.26681182715315 102.26681182715315 0.33307598967348895 0 0 200.5,188.2727272727273 Z" style="fill: rgb(31, 119, 180);"/><title>cluster - 0 → Persona - casual goer
cluster 1
3.00</title><text class="label" dy="0.35em" x="204.5" y="175.31818181818184"/></g><g class="link" style="opacity: 0.8;"><path d="M200.5,298.8181818181818 A148.2806519138756 148.2806519138756 0.23185443804874817 0 0 234.57233367162542,294.8504808483339 L358.97420457062776,265.4791595156474 A174.18974282296654 174.18974282296654 0.23185443804874817 0 1 399,260.8181818181818 L399,286.7272727272727 A148.2806519138756 148.2806519138756 0.23185443804874817 0 0 364.9276663283746,290.6949736971206 L240.52579542937224,320.0662950298071 A174.18974282296654 174.18974282296654 0.23185443804874817 0 1 200.5,324.7272727272727 Z" style="fill: rgb(255, 187, 120);"/><title>cluster - 2 → Persona - casual goer
cluster 3
3.00</title><text class="label" dy="0.35em" x="204.5" y="311.77272727272725"/></g><g class="link" style="opacity: 0.8;"><path d="M200.5,55.27272727272728 A128.17590273624407 128.17590273624407 0.33307598967348895 0 1 242.4073045972969,62.317131778162384 L365.56371172782787,104.92498474877118 A102.26681182715315 102.26681182715315 0.33307598967348895 0 0 399,110.54545454545453 L399,136.45454545454544 A128.17590273624407 128.17590273624407 0.33307598967348895 0 1 357.0926954027031,129.41014094911034 L233.93628827217213,86.80228797850154 A102.26681182715315 102.26681182715315 0.33307598967348895 0 0 200.5,81.18181818181819 Z" style="fill: rgb(174, 199, 232);"/><title>cluster - 1 → Persona - art lover
cluster 2
3.00</title><text class="label" dy="0.35em" x="204.5" y="68.22727272727273"/></g></g><g class="nodes"><g class="node" transform="translate(0,94.25974025974028)"><title>name - Sofia</title><line x1="0" x2="0" y1="0" y2="8.63636363636364" style="display: inline; stroke: rgb(0, 0, 0);"/><rect class="node-body" width="1" height="8.63636363636364" style="fill: none;"/><text class="node-value" dy=".35em" text-anchor="middle" transform="translate(0.5,4.31818181818182) rotate(-90)" style="display: none;"/><text class="node-title" dy=".35em" text-anchor="end" transform="translate(-4,4.31818181818182)" style="display: inline;">name - Sofia</text><rect class="node-click-target" x="-5" y="-5" width="10" height="13.63636363636364" style="fill: none; visibility: hidden; pointer-events: all;"/></g><g class="node" transform="translate(0,248.97402597402606)"><title>name - Natalija</title><line x1="0" x2="0" y1="0" y2="8.636363636363626" style="display: inline; stroke: rgb(0, 0, 0);"/><rect class="node-body" width="1" height="8.636363636363626" style="fill: none;"/><text class="node-value" dy=".35em" text-anchor="middle" transform="translate(0.5,4.318181818181813) rotate(-90)" style="display: none;"/><text class="node-title" dy=".35em" text-anchor="end" transform="translate(-4,4.318181818181813)" style="display: inline;">name - Natalija</text><rect class="node-click-target" x="-5" y="-5" width="10" height="13.636363636363626" style="fill: none; visibility: hidden; pointer-events: all;"/></g><g class="node" transform="translate(0,150.51948051948057)"><title>name - Jenny</title><line x1="0" x2="0" y1="0" y2="8.636363636363626" style="display: inline; stroke: rgb(0, 0, 0);"/><rect class="node-body" width="1" height="8.636363636363626" style="fill: none;"/><text class="node-value" dy=".35em" text-anchor="middle" transform="translate(0.5,4.318181818181813) rotate(-90)" style="display: none;"/><text class="node-title" dy=".35em" text-anchor="end" transform="translate(-4,4.318181818181813)" style="display: inline;">name - Jenny</text><rect class="node-click-target" x="-5" y="-5" width="10" height="13.636363636363626" style="fill: none; visibility: hidden; pointer-events: all;"/></g><g class="node" transform="translate(0,38)"><title>name - Emma</title><line x1="0" x2="0" y1="0" y2="8.63636363636364" style="display: inline; stroke: rgb(0, 0, 0);"/><rect class="node-body" width="1" height="8.63636363636364" style="fill: none;"/><text class="node-value" dy=".35em" text-anchor="middle" transform="translate(0.5,4.31818181818182) rotate(-90)" style="display: none;"/><text class="node-title" dy=".35em" text-anchor="end" transform="translate(-4,4.31818181818182)" style="display: inline;">name - Emma</text><rect class="node-click-target" x="-5" y="-5" width="10" height="13.63636363636364" style="fill: none; visibility: hidden; pointer-events: all;"/></g><g class="node" transform="translate(0,333.3636363636365)"><title>name - Volker</title><line x1="0" x2="0" y1="0" y2="8.636363636363626" style="display: inline; stroke: rgb(0, 0, 0);"/><rect class="node-body" width="1" height="8.636363636363626" style="fill: none;"/><text class="node-value" dy=".35em" text-anchor="middle" transform="translate(0.5,4.318181818181813) rotate(-90)" style="display: none;"/><text class="node-title" dy=".35em" text-anchor="end" transform="translate(-4,4.318181818181813)" style="display: inline;">name - Volker</text><rect class="node-click-target" x="-5" y="-5" width="10" height="13.636363636363626" style="fill: none; visibility: hidden; pointer-events: all;"/></g><g class="node" transform="translate(0,164.58441558441564)"><title>name - Nico</title><line x1="0" x2="0" y1="0" y2="8.636363636363626" style="display: inline; stroke: rgb(0, 0, 0);"/><rect class="node-body" width="1" height="8.636363636363626" style="fill: none;"/><text class="node-value" dy=".35em" text-anchor="middle" transform="translate(0.5,4.318181818181813) rotate(-90)" style="display: none;"/><text class="node-title" dy=".35em" text-anchor="end" transform="translate(-4,4.318181818181813)" style="display: inline;">name - Nico</text><rect class="node-click-target" x="-5" y="-5" width="10" height="13.636363636363626" style="fill: none; visibility: hidden; pointer-events: all;"/></g><g class="node" transform="translate(0,80.19480519480521)"><title>name - Matic</title><line x1="0" x2="0" y1="0" y2="8.63636363636364" style="display: inline; stroke: rgb(0, 0, 0);"/><rect class="node-body" width="1" height="8.63636363636364" style="fill: none;"/><text class="node-value" dy=".35em" text-anchor="middle" transform="translate(0.5,4.31818181818182) rotate(-90)" style="display: none;"/><text class="node-title" dy=".35em" text-anchor="end" transform="translate(-4,4.31818181818182)" style="display: inline;">name - Matic</text><rect class="node-click-target" x="-5" y="-5" width="10" height="13.63636363636364" style="fill: none; visibility: hidden; pointer-events: all;"/></g><g class="node" transform="translate(0,206.77922077922085)"><title>name - Tereza</title><line x1="0" x2="0" y1="0" y2="8.636363636363626" style="display: inline; stroke: rgb(0, 0, 0);"/><rect class="node-body" width="1" height="8.636363636363626" style="fill: none;"/><text class="node-value" dy=".35em" text-anchor="middle" transform="translate(0.5,4.318181818181813) rotate(-90)" style="display: none;"/><text class="node-title" dy=".35em" text-anchor="end" transform="translate(-4,4.318181818181813)" style="display: inline;">name - Tereza</text><rect class="node-click-target" x="-5" y="-5" width="10" height="13.636363636363626" style="fill: none; visibility: hidden; pointer-events: all;"/></g><g class="node" transform="translate(399,38)"><title>Persona - tourist</title><line x1="0" x2="0" y1="0" y2="34.54545454545455" style="display: inline; stroke: rgb(0, 0, 0);"/><rect class="node-body" width="1" height="34.54545454545455" style="fill: none;"/><text class="node-value" dy=".35em" text-anchor="middle" transform="translate(0.5,17.272727272727273) rotate(-90)" style="display: none;"/><text class="node-title" dy=".35em" text-anchor="start" transform="translate(5,17.272727272727273)" style="display: inline;">Persona - tourist</text><rect class="node-click-target" x="-5" y="-5" width="10" height="39.54545454545455" style="fill: none; visibility: hidden; pointer-events: all;"/></g><g class="node" transform="translate(199.5,298.8181818181818)"><title>cluster - 2</title><line x1="0" x2="0" y1="-5" y2="43.18181818181819" style="display: inline; stroke: rgb(0, 0, 0);"/><rect class="node-body" width="1" height="43.18181818181819" style="fill: none;"/><text class="node-value" dy=".35em" text-anchor="middle" transform="translate(0.5,21.590909090909093) rotate(-90)" style="display: none;"/><text class="node-title" dy=".35em" text-anchor="start" transform="translate(-4,-10)" style="display: inline;">cluster - 2</text><rect class="node-click-target" x="-5" y="-5" width="10" height="48.18181818181819" style="fill: none; visibility: hidden; pointer-events: all;"/></g><g class="node" transform="translate(0,122.38961038961043)"><title>name - Börni</title><line x1="0" x2="0" y1="0" y2="8.636363636363626" style="display: inline; stroke: rgb(0, 0, 0);"/><rect class="node-body" width="1" height="8.636363636363626" style="fill: none;"/><text class="node-value" dy=".35em" text-anchor="middle" transform="translate(0.5,4.318181818181813) rotate(-90)" style="display: none;"/><text class="node-title" dy=".35em" text-anchor="end" transform="translate(-4,4.318181818181813)" style="display: inline;">name - Börni</text><rect class="node-click-target" x="-5" y="-5" width="10" height="13.636363636363626" style="fill: none; visibility: hidden; pointer-events: all;"/></g><g class="node" transform="translate(0,66.12987012987014)"><title>name - Lorenzo</title><line x1="0" x2="0" y1="0" y2="8.63636363636364" style="display: inline; stroke: rgb(0, 0, 0);"/><rect class="node-body" width="1" height="8.63636363636364" style="fill: none;"/><text class="node-value" dy=".35em" text-anchor="middle" transform="translate(0.5,4.31818181818182) rotate(-90)" style="display: none;"/><text class="node-title" dy=".35em" text-anchor="end" transform="translate(-4,4.31818181818182)" style="display: inline;">name - Lorenzo</text><rect class="node-click-target" x="-5" y="-5" width="10" height="13.63636363636364" style="fill: none; visibility: hidden; pointer-events: all;"/></g><g class="node" transform="translate(399,217.63636363636363)"><title>Persona - casual goer</title><line x1="0" x2="0" y1="0" y2="69.09090909090912" style="display: inline; stroke: rgb(0, 0, 0);"/><rect class="node-body" width="1" height="69.09090909090912" style="fill: none;"/><text class="node-value" dy=".35em" text-anchor="middle" transform="translate(0.5,34.54545454545456) rotate(-90)" style="display: none;"/><text class="node-title" dy=".35em" text-anchor="start" transform="translate(5,34.54545454545456)" style="display: inline;">Persona - casual goer</text><rect class="node-click-target" x="-5" y="-5" width="10" height="74.09090909090912" style="fill: none; visibility: hidden; pointer-events: all;"/></g><g class="node" transform="translate(0,220.84415584415592)"><title>name - Cristina</title><line x1="0" x2="0" y1="0" y2="8.636363636363626" style="display: inline; stroke: rgb(0, 0, 0);"/><rect class="node-body" width="1" height="8.636363636363626" style="fill: none;"/><text class="node-value" dy=".35em" text-anchor="middle" transform="translate(0.5,4.318181818181813) rotate(-90)" style="display: none;"/><text class="node-title" dy=".35em" text-anchor="end" transform="translate(-4,4.318181818181813)" style="display: inline;">name - Cristina</text><rect class="node-click-target" x="-5" y="-5" width="10" height="13.636363636363626" style="fill: none; visibility: hidden; pointer-events: all;"/></g><g class="node" transform="translate(399,324.72727272727275)"><title>Persona - parent</title><line x1="0" x2="0" y1="0" y2="17.272727272727252" style="display: inline; stroke: rgb(0, 0, 0);"/><rect class="node-body" width="1" height="17.272727272727252" style="fill: none;"/><text class="node-value" dy=".35em" text-anchor="middle" transform="translate(0.5,8.636363636363626) rotate(-90)" style="display: none;"/><text class="node-title" dy=".35em" text-anchor="start" transform="translate(5,8.636363636363626)" style="display: inline;">Persona - parent</text><rect class="node-click-target" x="-5" y="-5" width="10" height="22.272727272727252" style="fill: none; visibility: hidden; pointer-events: all;"/></g><g class="node" transform="translate(0,263.03896103896113)"><title>name - Primož</title><line x1="0" x2="0" y1="0" y2="8.636363636363626" style="display: inline; stroke: rgb(0, 0, 0);"/><rect class="node-body" width="1" height="8.636363636363626" style="fill: none;"/><text class="node-value" dy=".35em" text-anchor="middle" transform="translate(0.5,4.318181818181813) rotate(-90)" style="display: none;"/><text class="node-title" dy=".35em" text-anchor="end" transform="translate(-4,4.318181818181813)" style="display: inline;">name - Primož</text><rect class="node-click-target" x="-5" y="-5" width="10" height="13.636363636363626" style="fill: none; visibility: hidden; pointer-events: all;"/></g><g class="node" transform="translate(199.5,119.18181818181819)"><title>cluster - 0</title><line x1="0" x2="0" y1="-5" y2="69.0909090909091" style="display: inline; stroke: rgb(0, 0, 0);"/><rect class="node-body" width="1" height="69.0909090909091" style="fill: none;"/><text class="node-value" dy=".35em" text-anchor="middle" transform="translate(0.5,34.54545454545455) rotate(-90)" style="display: none;"/><text class="node-title" dy=".35em" text-anchor="start" transform="translate(-4,-10)" style="display: inline;">cluster - 0</text><rect class="node-click-target" x="-5" y="-5" width="10" height="74.0909090909091" style="fill: none; visibility: hidden; pointer-events: all;"/></g><g class="node" transform="translate(0,319.2987012987014)"><title>name - Theresa</title><line x1="0" x2="0" y1="0" y2="8.636363636363626" style="display: inline; stroke: rgb(0, 0, 0);"/><rect class="node-body" width="1" height="8.636363636363626" style="fill: none;"/><text class="node-value" dy=".35em" text-anchor="middle" transform="translate(0.5,4.318181818181813) rotate(-90)" style="display: none;"/><text class="node-title" dy=".35em" text-anchor="end" transform="translate(-4,4.318181818181813)" style="display: inline;">name - Theresa</text><rect class="node-click-target" x="-5" y="-5" width="10" height="13.636363636363626" style="fill: none; visibility: hidden; pointer-events: all;"/></g><g class="node" transform="translate(0,192.71428571428578)"><title>name - Sabine</title><line x1="0" x2="0" y1="0" y2="8.636363636363626" style="display: inline; stroke: rgb(0, 0, 0);"/><rect class="node-body" width="1" height="8.636363636363626" style="fill: none;"/><text class="node-value" dy=".35em" text-anchor="middle" transform="translate(0.5,4.318181818181813) rotate(-90)" style="display: none;"/><text class="node-title" dy=".35em" text-anchor="end" transform="translate(-4,4.318181818181813)" style="display: inline;">name - Sabine</text><rect class="node-click-target" x="-5" y="-5" width="10" height="13.636363636363626" style="fill: none; visibility: hidden; pointer-events: all;"/></g><g class="node" transform="translate(0,291.1688311688313)"><title>name - Petra</title><line x1="0" x2="0" y1="0" y2="8.636363636363626" style="display: inline; stroke: rgb(0, 0, 0);"/><rect class="node-body" width="1" height="8.636363636363626" style="fill: none;"/><text class="node-value" dy=".35em" text-anchor="middle" transform="translate(0.5,4.318181818181813) rotate(-90)" style="display: none;"/><text class="node-title" dy=".35em" text-anchor="end" transform="translate(-4,4.318181818181813)" style="display: inline;">name - Petra</text><rect class="node-click-target" x="-5" y="-5" width="10" height="13.636363636363626" style="fill: none; visibility: hidden; pointer-events: all;"/></g><g class="node" transform="translate(399,110.54545454545453)"><title>Persona - art lover</title><line x1="0" x2="0" y1="0" y2="69.0909090909091" style="display: inline; stroke: rgb(0, 0, 0);"/><rect class="node-body" width="1" height="69.0909090909091" style="fill: none;"/><text class="node-value" dy=".35em" text-anchor="middle" transform="translate(0.5,34.54545454545455) rotate(-90)" style="display: none;"/><text class="node-title" dy=".35em" text-anchor="start" transform="translate(5,34.54545454545455)" style="display: inline;">Persona - art lover</text><rect class="node-click-target" x="-5" y="-5" width="10" height="74.0909090909091" style="fill: none; visibility: hidden; pointer-events: all;"/></g><g class="node" transform="translate(0,136.4545454545455)"><title>name - Jaqueline</title><line x1="0" x2="0" y1="0" y2="8.636363636363626" style="display: inline; stroke: rgb(0, 0, 0);"/><rect class="node-body" width="1" height="8.636363636363626" style="fill: none;"/><text class="node-value" dy=".35em" text-anchor="middle" transform="translate(0.5,4.318181818181813) rotate(-90)" style="display: none;"/><text class="node-title" dy=".35em" text-anchor="end" transform="translate(-4,4.318181818181813)" style="display: inline;">name - Jaqueline</text><rect class="node-click-target" x="-5" y="-5" width="10" height="13.636363636363626" style="fill: none; visibility: hidden; pointer-events: all;"/></g><g class="node" transform="translate(0,305.23376623376635)"><title>name - Stephan</title><line x1="0" x2="0" y1="0" y2="8.636363636363626" style="display: inline; stroke: rgb(0, 0, 0);"/><rect class="node-body" width="1" height="8.636363636363626" style="fill: none;"/><text class="node-value" dy=".35em" text-anchor="middle" transform="translate(0.5,4.318181818181813) rotate(-90)" style="display: none;"/><text class="node-title" dy=".35em" text-anchor="end" transform="translate(-4,4.318181818181813)" style="display: inline;">name - Stephan</text><rect class="node-click-target" x="-5" y="-5" width="10" height="13.636363636363626" style="fill: none; visibility: hidden; pointer-events: all;"/></g><g class="node" transform="translate(0,108.32467532467535)"><title>name - Britta</title><line x1="0" x2="0" y1="0" y2="8.63636363636364" style="display: inline; stroke: rgb(0, 0, 0);"/><rect class="node-body" width="1" height="8.63636363636364" style="fill: none;"/><text class="node-value" dy=".35em" text-anchor="middle" transform="translate(0.5,4.31818181818182) rotate(-90)" style="display: none;"/><text class="node-title" dy=".35em" text-anchor="end" transform="translate(-4,4.31818181818182)" style="display: inline;">name - Britta</text><rect class="node-click-target" x="-5" y="-5" width="10" height="13.63636363636364" style="fill: none; visibility: hidden; pointer-events: all;"/></g><g class="node" transform="translate(0,178.6493506493507)"><title>name - Rocco</title><line x1="0" x2="0" y1="0" y2="8.636363636363626" style="display: inline; stroke: rgb(0, 0, 0);"/><rect class="node-body" width="1" height="8.636363636363626" style="fill: none;"/><text class="node-value" dy=".35em" text-anchor="middle" transform="translate(0.5,4.318181818181813) rotate(-90)" style="display: none;"/><text class="node-title" dy=".35em" text-anchor="end" transform="translate(-4,4.318181818181813)" style="display: inline;">name - Rocco</text><rect class="node-click-target" x="-5" y="-5" width="10" height="13.636363636363626" style="fill: none; visibility: hidden; pointer-events: all;"/></g><g class="node" transform="translate(199.5,226.27272727272728)"><title>cluster - 3</title><line x1="0" x2="0" y1="-5" y2="34.54545454545453" style="display: inline; stroke: rgb(0, 0, 0);"/><rect class="node-body" width="1" height="34.54545454545453" style="fill: none;"/><text class="node-value" dy=".35em" text-anchor="middle" transform="translate(0.5,17.272727272727266) rotate(-90)" style="display: none;"/><text class="node-title" dy=".35em" text-anchor="start" transform="translate(-4,-10)" style="display: inline;">cluster - 3</text><rect class="node-click-target" x="-5" y="-5" width="10" height="39.54545454545453" style="fill: none; visibility: hidden; pointer-events: all;"/></g><g class="node" transform="translate(0,52.06493506493507)"><title>name - Lisa</title><line x1="0" x2="0" y1="0" y2="8.63636363636364" style="display: inline; stroke: rgb(0, 0, 0);"/><rect class="node-body" width="1" height="8.63636363636364" style="fill: none;"/><text class="node-value" dy=".35em" text-anchor="middle" transform="translate(0.5,4.31818181818182) rotate(-90)" style="display: none;"/><text class="node-title" dy=".35em" text-anchor="end" transform="translate(-4,4.31818181818182)" style="display: inline;">name - Lisa</text><rect class="node-click-target" x="-5" y="-5" width="10" height="13.63636363636364" style="fill: none; visibility: hidden; pointer-events: all;"/></g><g class="node" transform="translate(199.5,38)"><title>cluster - 1</title><line x1="0" x2="0" y1="-5" y2="43.18181818181819" style="display: inline; stroke: rgb(0, 0, 0);"/><rect class="node-body" width="1" height="43.18181818181819" style="fill: none;"/><text class="node-value" dy=".35em" text-anchor="middle" transform="translate(0.5,21.590909090909093) rotate(-90)" style="display: none;"/><text class="node-title" dy=".35em" text-anchor="start" transform="translate(-4,-10)" style="display: inline;">cluster - 1</text><rect class="node-click-target" x="-5" y="-5" width="10" height="48.18181818181819" style="fill: none; visibility: hidden; pointer-events: all;"/></g><g class="node" transform="translate(0,234.909090909091)"><title>name - Nastja</title><line x1="0" x2="0" y1="0" y2="8.636363636363626" style="display: inline; stroke: rgb(0, 0, 0);"/><rect class="node-body" width="1" height="8.636363636363626" style="fill: none;"/><text class="node-value" dy=".35em" text-anchor="middle" transform="translate(0.5,4.318181818181813) rotate(-90)" style="display: none;"/><text class="node-title" dy=".35em" text-anchor="end" transform="translate(-4,4.318181818181813)" style="display: inline;">name - Nastja</text><rect class="node-click-target" x="-5" y="-5" width="10" height="13.636363636363626" style="fill: none; visibility: hidden; pointer-events: all;"/></g><g class="node" transform="translate(0,277.1038961038962)"><title>name - Maria</title><line x1="0" x2="0" y1="0" y2="8.636363636363626" style="display: inline; stroke: rgb(0, 0, 0);"/><rect class="node-body" width="1" height="8.636363636363626" style="fill: none;"/><text class="node-value" dy=".35em" text-anchor="middle" transform="translate(0.5,4.318181818181813) rotate(-90)" style="display: none;"/><text class="node-title" dy=".35em" text-anchor="end" transform="translate(-4,4.318181818181813)" style="display: inline;">name - Maria</text><rect class="node-click-target" x="-5" y="-5" width="10" height="13.636363636363626" style="fill: none; visibility: hidden; pointer-events: all;"/></g></g><g class="slice-titles"/></g></svg>